# xmcd
#
# Track frame offsets:
#	150
#	11171
#	26943
#	39775
#	51848
#	62809
#	75825
#	87963
#	100728
#	113419
#	126918
#	138457
#	154692
#	170685
#	181050
#	193520
#
# Disc length: 2812 seconds
#
# Revision: 4
# Processed by: cddbd v1.5.2PL0 Copyright (c) Steve Scherf et al.
# Submitted via: audiograbber 1.83.01
#
DISCID=c50afa10
DTITLE=Ernst Mosch und seine Original Egerländer Musikanten  - Rosen aus Böhmen
DTITLE=CD 2
DYEAR=2004
DGENRE=Blasmusik
TTITLE0=Aufgalopp (Marsch)
TTITLE1=Babalinka (Polka-Potpourri)
TTITLE2=Das ist Liebe (Walzer)
TTITLE3=Dounadampfschiffahrtsgesellschaftskapitän (Tango)
TTITLE4=Bei einem Gläschen Wein (Polka)
TTITLE5=Andulka-Marsch (Marsch)
TTITLE6=Blumen der Erinnerung (Walzer)
TTITLE7=Dann und wann (Polka)
TTITLE8=Egerländer Spatzen  (Polka)
TTITLE9=Blumenmädchen (Walzer)
TTITLE10=Bubenstreiche (Polka)
TTITLE11=Verliebte Stunden (Walzer-Potpour)
TTITLE12=Gruß an Kladno (Polka)
TTITLE13=Immer, wenn's am schönsten ist (Polka)
TTITLE14=Ich bin verliebt in dich (Walzer)
TTITLE15=Gute Nacht, schlafe gut (Polka)
EXTD=YEAR: 2004
EXTT0=
EXTT1=
EXTT2=
EXTT3=
EXTT4=
EXTT5=
EXTT6=
EXTT7=
EXTT8=
EXTT9=
EXTT10=
EXTT11=
EXTT12=
EXTT13=
EXTT14=
EXTT15=
PLAYORDER=
